<svg width="72" height="72" viewBox="0 0 72 72" fill="none" xmlns="http://www.w3.org/2000/svg">
<rect width="72" height="72" rx="36" fill="#5C3B81"/>
<path d="M42 49.5V46.5C42 44.9087 41.3679 43.3826 40.2426 42.2574C39.1174 41.1321 37.5913 40.5 36 40.5H25.5C23.9087 40.5 22.3826 41.1321 21.2574 42.2574C20.1321 43.3826 19.5 44.9087 19.5 46.5V49.5M43.5 34.5L46.5 37.5L52.5 31.5M36.75 28.5C36.75 31.8137 34.0637 34.5 30.75 34.5C27.4363 34.5 24.75 31.8137 24.75 28.5C24.75 25.1863 27.4363 22.5 30.75 22.5C34.0637 22.5 36.75 25.1863 36.75 28.5Z" stroke="#FCFAFF" stroke-width="2.33333" stroke-linecap="round" stroke-linejoin="round"/>
</svg>
