<svg width="72" height="72" viewBox="0 0 72 72" fill="none" xmlns="http://www.w3.org/2000/svg">
<rect width="72" height="72" rx="36" fill="#5C3B81"/>
<path d="M36 51C44.2843 51 51 44.2843 51 36C51 27.7157 44.2843 21 36 21C27.7157 21 21 27.7157 21 36C21 44.2843 27.7157 51 36 51Z" stroke="#FCFAFF" stroke-width="2.33333" stroke-linecap="round" stroke-linejoin="round"/>
<path d="M36 45C40.9706 45 45 40.9706 45 36C45 31.0294 40.9706 27 36 27C31.0294 27 27 31.0294 27 36C27 40.9706 31.0294 45 36 45Z" stroke="#FCFAFF" stroke-width="2.33333" stroke-linecap="round" stroke-linejoin="round"/>
<path d="M36 39C37.6569 39 39 37.6569 39 36C39 34.3431 37.6569 33 36 33C34.3431 33 33 34.3431 33 36C33 37.6569 34.3431 39 36 39Z" stroke="#FCFAFF" stroke-width="2.33333" stroke-linecap="round" stroke-linejoin="round"/>
</svg>
