<svg width="1920" height="470" viewBox="0 0 1920 470" fill="none" xmlns="http://www.w3.org/2000/svg">
<mask id="mask0_312_72308" style="mask-type:alpha" maskUnits="userSpaceOnUse" x="0" y="0" width="1920" height="470">
<rect width="1920" height="470" fill="url(#paint0_linear_312_72308)"/>
</mask>
<g mask="url(#mask0_312_72308)">
<path d="M312.152 377.443L217.529 325.863C62.3533 241.277 -126.792 353.594 -126.792 530.327V579C-126.792 711.549 -19.3407 819 113.208 819H1692.45C1825 819 1932.45 711.548 1932.45 579V9L1730.38 78.4424L1606.42 138.173L1505.58 202.738C1469.32 225.957 1427.48 238.993 1384.45 240.48L1259.86 244.784C1218.86 246.2 1179.05 258.899 1144.8 281.483L1076.8 326.33C1057.22 339.239 1032.5 341.541 1010.87 332.467C999.426 327.663 989.455 319.915 981.972 310.009L975.958 302.048C947.347 264.17 897.253 249.584 852.78 266.18L833.174 273.497C812.383 281.255 790.004 283.785 768.006 280.865L706.415 272.687L631.413 253.088C616.347 249.151 600.341 251.225 586.777 258.872L490.482 313.16C476.492 321.048 464.385 331.884 455.001 344.918C422.389 390.216 361.16 404.157 312.152 377.443Z" fill="url(#paint1_linear_312_72308)" stroke="url(#paint2_linear_312_72308)" stroke-width="2"/>
<g filter="url(#filter0_b_312_72308)">
<path d="M348.587 326H128C57.3075 326 0 383.308 0 454V580.5C0 713.048 107.452 820.5 240 820.5H1680C1812.55 820.5 1920 713.048 1920 580.5V-5.62599C1920 -13.3515 1910.13 -16.5897 1905.56 -10.3668L1852.44 61.8257C1811.88 116.964 1749.7 152.158 1681.55 158.553L1634.15 163H1539.66C1526.1 163 1512.6 164.678 1499.45 167.995L1488.38 170.791C1472.17 174.88 1455.27 175.334 1438.87 172.122L1426.68 169.733C1362.57 157.173 1297.92 188.745 1268.41 247.029C1238.7 305.696 1161.41 320.739 1111.2 278.269C1089.28 259.727 1060.39 251.036 1031.91 254.614L1019.97 256.113C980.325 261.092 940.592 247.574 912.21 219.451L861.355 169.06C843.519 151.387 813.999 154.326 799.997 175.169L731.603 276.984C705.856 315.312 653.838 325.371 615.658 299.405L572.457 270.025C527.175 239.23 466.004 247.249 430.191 288.676C409.701 312.378 379.918 326 348.587 326Z" fill="url(#paint3_linear_312_72308)"/>
<path d="M348.587 326H128C57.3075 326 0 383.308 0 454V580.5C0 713.048 107.452 820.5 240 820.5H1680C1812.55 820.5 1920 713.048 1920 580.5V-5.62599C1920 -13.3515 1910.13 -16.5897 1905.56 -10.3668L1852.44 61.8257C1811.88 116.964 1749.7 152.158 1681.55 158.553L1634.15 163H1539.66C1526.1 163 1512.6 164.678 1499.45 167.995L1488.38 170.791C1472.17 174.88 1455.27 175.334 1438.87 172.122L1426.68 169.733C1362.57 157.173 1297.92 188.745 1268.41 247.029C1238.7 305.696 1161.41 320.739 1111.2 278.269C1089.28 259.727 1060.39 251.036 1031.91 254.614L1019.97 256.113C980.325 261.092 940.592 247.574 912.21 219.451L861.355 169.06C843.519 151.387 813.999 154.326 799.997 175.169L731.603 276.984C705.856 315.312 653.838 325.371 615.658 299.405L572.457 270.025C527.175 239.23 466.004 247.249 430.191 288.676C409.701 312.378 379.918 326 348.587 326Z" stroke="url(#paint4_linear_312_72308)" stroke-width="2"/>
</g>
</g>
<defs>
<filter id="filter0_b_312_72308" x="-9" y="-22.6433" width="1938" height="852.143" filterUnits="userSpaceOnUse" color-interpolation-filters="sRGB">
<feFlood flood-opacity="0" result="BackgroundImageFix"/>
<feGaussianBlur in="BackgroundImage" stdDeviation="4"/>
<feComposite in2="SourceAlpha" operator="in" result="effect1_backgroundBlur_312_72308"/>
<feBlend mode="normal" in="SourceGraphic" in2="effect1_backgroundBlur_312_72308" result="shape"/>
</filter>
<linearGradient id="paint0_linear_312_72308" x1="1920" y1="235" x2="2.99578e-06" y2="235" gradientUnits="userSpaceOnUse">
<stop stop-color="#C4C4C4" stop-opacity="0"/>
<stop offset="0.0989583" stop-color="#C4C4C4" stop-opacity="0.7"/>
<stop offset="0.49329" stop-color="#C4C4C4"/>
<stop offset="0.895833" stop-color="#C4C4C4" stop-opacity="0.7"/>
<stop offset="1" stop-color="#C4C4C4" stop-opacity="0"/>
</linearGradient>
<linearGradient id="paint1_linear_312_72308" x1="960.567" y1="-67.241" x2="960.567" y2="819" gradientUnits="userSpaceOnUse">
<stop stop-color="#56A4FF" stop-opacity="0.7"/>
<stop offset="0.5625" stop-color="#122069" stop-opacity="0"/>
<stop offset="1" stop-color="white" stop-opacity="0"/>
</linearGradient>
<linearGradient id="paint2_linear_312_72308" x1="961.132" y1="286.77" x2="961.132" y2="492.183" gradientUnits="userSpaceOnUse">
<stop stop-color="white"/>
<stop offset="1" stop-color="white" stop-opacity="0"/>
</linearGradient>
<linearGradient id="paint3_linear_312_72308" x1="924.767" y1="-30" x2="924.767" y2="732.5" gradientUnits="userSpaceOnUse">
<stop stop-color="#FF56E4" stop-opacity="0.7"/>
<stop offset="0.5625" stop-color="#691246" stop-opacity="0"/>
<stop offset="1" stop-color="white" stop-opacity="0"/>
</linearGradient>
<linearGradient id="paint4_linear_312_72308" x1="961.133" y1="184.5" x2="961.133" y2="396" gradientUnits="userSpaceOnUse">
<stop stop-color="white"/>
<stop offset="1" stop-color="white" stop-opacity="0"/>
</linearGradient>
</defs>
</svg>
