<svg width="178" height="40" viewBox="0 0 178 40" fill="none" xmlns="http://www.w3.org/2000/svg">
<path d="M40.8636 27.0943L46.0955 13.6795H48.4334L53.627 27.0943H51.0397L48.1653 19.4673C48.1014 19.3138 48.0118 19.0711 47.8969 18.7388C47.7948 18.4068 47.6795 18.0492 47.5518 17.6658C47.4243 17.2696 47.309 16.9057 47.207 16.5734C47.1049 16.2286 47.0281 15.9793 46.9771 15.8261L47.4563 15.8067C47.3795 16.0623 47.2899 16.3498 47.1878 16.6692C47.0858 16.9887 46.9771 17.3207 46.8621 17.6658C46.7472 18.0106 46.6319 18.3429 46.517 18.6624C46.4149 18.9815 46.3191 19.269 46.2295 19.5246L43.3551 27.0943H40.8636ZM43.2401 24.0282L44.1023 21.8625H50.2157L51.1356 24.0282H43.2401ZM63.0219 27.0943V13.6795H65.513V24.7946H71.7031V27.0943H63.0219ZM87.552 27.4286C86.5429 27.4286 85.6102 27.2561 84.7543 26.9112C83.898 26.5536 83.1508 26.0616 82.5119 25.4355C81.8858 24.8094 81.4004 24.0813 81.0556 23.251C80.7107 22.4076 80.5382 21.4944 80.5382 20.5106C80.5382 19.5394 80.7107 18.6387 81.0556 17.8084C81.4132 16.965 81.9115 16.2369 82.5504 15.6237C83.189 14.9976 83.9366 14.5121 84.7925 14.1673C85.6613 13.8222 86.594 13.6499 87.5905 13.6499C88.293 13.6499 88.9701 13.7458 89.6219 13.9371C90.2733 14.1288 90.8611 14.3972 91.3848 14.742C91.9087 15.0872 92.3431 15.4768 92.688 15.9112L91.1164 17.5591C90.7587 17.2143 90.3882 16.9268 90.0049 16.6969C89.6344 16.4671 89.2448 16.2879 88.8361 16.1601C88.4274 16.0327 88.0055 15.9688 87.5711 15.9688C86.9325 15.9688 86.3384 16.0837 85.7891 16.3136C85.2523 16.5435 84.7797 16.8629 84.371 17.2716C83.9748 17.6807 83.6619 18.1598 83.4317 18.7092C83.2018 19.2585 83.0869 19.8589 83.0869 20.5106C83.0869 21.1364 83.2018 21.7305 83.4317 22.2927C83.6747 22.8548 84.0067 23.3469 84.4283 23.7684C84.8498 24.1899 85.3356 24.5222 85.8849 24.765C86.4471 24.9948 87.0409 25.1098 87.6669 25.1098C88.1399 25.1098 88.5805 25.0396 88.9892 24.899C89.3982 24.7584 89.7622 24.5667 90.0816 24.324C90.4011 24.0684 90.6438 23.7747 90.8098 23.4427C90.9889 23.1104 91.0782 22.7527 91.0782 22.3694V21.9478L91.4233 22.3503H87.4562V20.1273H93.5311C93.5567 20.2676 93.5758 20.4273 93.5887 20.6061C93.6015 20.7725 93.6078 20.9384 93.6078 21.1044C93.6206 21.2579 93.6269 21.3919 93.6269 21.5069C93.6269 22.3885 93.4738 23.1934 93.1671 23.9215C92.8605 24.6372 92.4261 25.2567 91.864 25.7806C91.3146 26.3043 90.6695 26.7133 89.9285 27.0071C89.2003 27.288 88.4079 27.4286 87.552 27.4286ZM109.312 27.4286C108.354 27.4286 107.466 27.2561 106.648 26.9112C105.831 26.5661 105.115 26.0872 104.502 25.474C103.902 24.848 103.435 24.1132 103.103 23.2701C102.771 22.4267 102.605 21.5069 102.605 20.5106C102.605 19.5141 102.771 18.5942 103.103 17.7508C103.435 16.9077 103.902 16.1796 104.502 15.5663C105.115 14.9403 105.831 14.4548 106.648 14.1097C107.466 13.7649 108.354 13.5923 109.312 13.5923C110.283 13.5923 111.177 13.7649 111.995 14.1097C112.813 14.4548 113.522 14.9403 114.122 15.5663C114.723 16.1921 115.189 16.9268 115.521 17.7699C115.854 18.6005 116.02 19.5141 116.02 20.5106C116.02 21.4944 115.854 22.4076 115.521 23.251C115.189 24.0941 114.723 24.8289 114.122 25.4546C113.522 26.0807 112.813 26.5661 111.995 26.9112C111.177 27.2561 110.283 27.4286 109.312 27.4286ZM109.312 25.0521C109.926 25.0521 110.481 24.9438 110.979 24.7264C111.491 24.4966 111.931 24.1771 112.302 23.7684C112.672 23.3469 112.96 22.8611 113.164 22.3118C113.381 21.7624 113.49 21.1621 113.49 20.5106C113.49 19.8589 113.381 19.2585 113.164 18.7092C112.96 18.1598 112.672 17.6807 112.302 17.2716C111.931 16.8501 111.491 16.5306 110.979 16.3136C110.481 16.0837 109.926 15.9688 109.312 15.9688C108.712 15.9688 108.156 16.0837 107.645 16.3136C107.134 16.5306 106.693 16.8438 106.323 17.2525C105.952 17.6616 105.665 18.1404 105.461 18.6901C105.256 19.2394 105.154 19.846 105.154 20.5106C105.154 21.1621 105.256 21.769 105.461 22.3312C105.665 22.8805 105.952 23.3594 106.323 23.7684C106.693 24.1771 107.134 24.4966 107.645 24.7264C108.156 24.9438 108.712 25.0521 109.312 25.0521ZM126.003 27.237V13.8222H131.714C132.596 13.8222 133.337 13.95 133.937 14.2055C134.551 14.4611 135.01 14.8444 135.317 15.3556C135.636 15.8535 135.796 16.4605 135.796 17.1761C135.796 17.9171 135.598 18.5429 135.202 19.054C134.806 19.5651 134.25 19.9165 133.535 20.1082L133.515 19.7248C134.116 19.8526 134.64 20.0825 135.087 20.4148C135.534 20.7339 135.879 21.1364 136.122 21.6221C136.377 22.0947 136.505 22.6378 136.505 23.251C136.505 23.9024 136.396 24.4775 136.179 24.9757C135.975 25.474 135.668 25.889 135.26 26.2213C134.851 26.5536 134.365 26.8091 133.803 26.988C133.241 27.154 132.608 27.237 131.906 27.237H126.003ZM128.437 24.9948H131.791C132.264 24.9948 132.66 24.9247 132.979 24.7841C133.311 24.6434 133.56 24.4389 133.726 24.1708C133.905 23.8896 133.995 23.5576 133.995 23.1743C133.995 22.8166 133.899 22.51 133.707 22.2545C133.528 21.9989 133.266 21.8072 132.921 21.6794C132.577 21.5388 132.168 21.4687 131.695 21.4687H128.437V24.9948ZM128.437 19.3224H131.484C131.855 19.3224 132.174 19.2519 132.443 19.1116C132.723 18.971 132.941 18.7793 133.094 18.5366C133.247 18.2939 133.324 18.0126 133.324 17.6935C133.324 17.1824 133.152 16.7862 132.806 16.5053C132.462 16.2115 131.957 16.0646 131.292 16.0646H128.437V19.3224ZM152.267 27.4286C151.309 27.4286 150.421 27.2561 149.603 26.9112C148.785 26.5661 148.07 26.0872 147.457 25.474C146.856 24.848 146.39 24.1132 146.058 23.2701C145.726 22.4267 145.56 21.5069 145.56 20.5106C145.56 19.5141 145.726 18.5942 146.058 17.7508C146.39 16.9077 146.856 16.1796 147.457 15.5663C148.07 14.9403 148.785 14.4548 149.603 14.1097C150.421 13.7649 151.309 13.5923 152.267 13.5923C153.238 13.5923 154.132 13.7649 154.95 14.1097C155.768 14.4548 156.477 14.9403 157.077 15.5663C157.677 16.1921 158.144 16.9268 158.476 17.7699C158.808 18.6005 158.974 19.5141 158.974 20.5106C158.974 21.4944 158.808 22.4076 158.476 23.251C158.144 24.0941 157.677 24.8289 157.077 25.4546C156.477 26.0807 155.768 26.5661 154.95 26.9112C154.132 27.2561 153.238 27.4286 152.267 27.4286ZM152.267 25.0521C152.88 25.0521 153.436 24.9438 153.934 24.7264C154.445 24.4966 154.886 24.1771 155.256 23.7684C155.627 23.3469 155.914 22.8611 156.119 22.3118C156.336 21.7624 156.445 21.1621 156.445 20.5106C156.445 19.8589 156.336 19.2585 156.119 18.7092C155.914 18.1598 155.627 17.6807 155.256 17.2716C154.886 16.8501 154.445 16.5306 153.934 16.3136C153.436 16.0837 152.88 15.9688 152.267 15.9688C151.666 15.9688 151.111 16.0837 150.6 16.3136C150.089 16.5306 149.648 16.8438 149.277 17.2525C148.907 17.6616 148.619 18.1404 148.415 18.6901C148.211 19.2394 148.108 19.846 148.108 20.5106C148.108 21.1621 148.211 21.769 148.415 22.3312C148.619 22.8805 148.907 23.3594 149.277 23.7684C149.648 24.1771 150.089 24.4966 150.6 24.7264C151.111 24.9438 151.666 25.0521 152.267 25.0521ZM171.061 27.237V16.1219H167.228V13.8222H177.5V16.1219H173.552V27.237H171.061Z" fill="white"/>
<path fill-rule="evenodd" clip-rule="evenodd" d="M30.5934 27.3274C30.5934 30.9082 28.6367 34.028 25.7422 35.6934L24.944 34.3162C25.2074 34.1649 25.4615 33.9993 25.7051 33.8204C25.8429 33.7192 25.9772 33.614 26.1081 33.5045C27.8771 32.0255 29.0016 29.8071 29.0016 27.3274C29.0016 22.8743 25.3754 19.2645 20.9022 19.2645C20.7875 19.2645 20.6734 19.2667 20.5599 19.2715C19.6831 19.3078 18.8423 19.4828 18.059 19.7752C17.9338 19.822 17.81 19.8717 17.6878 19.9243C17.7941 19.8438 17.8982 19.7607 18.0004 19.6751C18.6546 19.1265 19.221 18.4766 19.6754 17.7495C20.4538 16.5041 20.9037 15.0322 20.9037 13.4552C20.9037 8.97422 17.2712 5.34167 12.7902 5.34167C11.7745 5.34167 10.8025 5.52834 9.90642 5.86917C9.56257 5.99987 9.23008 6.15329 8.91052 6.32766C8.8632 6.35341 8.81609 6.37967 8.76939 6.40646L7.97132 5.02929C9.39216 4.21517 11.039 3.75 12.7902 3.75C18.1502 3.75 22.4954 8.09516 22.4954 13.4552C22.4954 14.9744 22.1459 16.4121 21.5238 17.6923C26.5805 18.0114 30.5934 22.197 30.5934 27.3274ZM12.8575 13.5923L20.8802 27.4883H6.66716L1.84234 35.766H0L5.86346 25.7062L12.8575 13.5923Z" fill="#8F6DC0"/>
</svg>
