<svg width="72" height="72" viewBox="0 0 72 72" fill="none" xmlns="http://www.w3.org/2000/svg">
<rect width="72" height="72" rx="36" fill="#5C3B81"/>
<path d="M37.9872 34.0128L26.1609 45.8391M27.4372 37.2563L21.6445 35.888C21.0072 35.7374 20.783 34.9462 21.2447 34.4829L25.8514 29.8762C26.1609 29.5667 26.5807 29.3894 27.0207 29.386L32.2145 29.3409M38.7566 23.3976C42.6223 26.0339 45.9661 29.3777 48.6024 33.2434M34.742 44.5628L36.1103 50.3555C36.2609 50.9928 37.0521 51.217 37.5154 50.7553L42.1222 46.1486C42.4316 45.8391 42.6089 45.4193 42.6123 44.9793L42.6575 39.7855M49.5943 30.5252L50.9459 24.0216C51.3139 22.2518 49.7482 20.6861 47.9784 21.0541L41.4748 22.4057C39.5595 22.8038 37.8032 23.7523 36.4215 25.1356L31.0854 30.47C29.0497 32.5057 27.7249 35.1453 27.3067 37.994L27.2883 38.1161C27.024 39.9343 27.6329 41.7693 28.9309 43.0691C30.229 44.3671 32.0657 44.976 33.8839 44.71L34.006 44.6916C36.8547 44.2751 39.4943 42.9486 41.53 40.9129L46.8644 35.5785C48.2477 34.1968 49.1962 32.4405 49.5943 30.5252Z" stroke="#FCFAFF" stroke-width="2.33333" stroke-linecap="round" stroke-linejoin="round"/>
</svg>
